# AST/ASF file generated using VICON BodyLanguage
# -----------------------------------------------
:version 1.10
:name VICON
:units
  mass 1.0
  length 0.45
  angle deg
:documentation
   .ast/.asf automatically generated from VICON data using
   VICON BodyBuilder and BodyLanguage model FoxedUp or BRILLIANT.MOD
:root
   order TX TY TZ RX RY RZ
   axis XYZ
   position 0 0 0  
   orientation 0 0 0 
:bonedata
  begin
     id 1 
     name lhipjoint
     direction 0.567725 -0.736092 0.368589 
     length 2.42353 
     axis 0 0 0  XYZ
  end
  begin
     id 2 
     name lfemur
     direction 0.34202 -0.939693 0  
     length 7.24894  
     axis 0 0 20  XYZ
    dof rx ry rz
    limits (-160.0 20.0)
           (-70.0 70.0)
           (-60.0 70.0)
  end
  begin
     id 3 
     name ltibia
     direction 0.34202 -0.939693 0   
     length 7.6997   
     axis 0 0 20   XYZ
    dof rx
    limits (-10.0 170.0)
  end
  begin
     id 4 
     name lfoot
     direction 0.100767 -0.276854 0.955614   
     length 2.37556   
     axis -90 7.62852e-016 20   XYZ
    dof rx rz
    limits (-45.0 90.0)
           (-70.0 20.0)
  end
  begin
     id 5 
     name ltoes
     direction 1.53592e-011 -4.21894e-011 1   
     length 1.18363   
     axis -90 7.62852e-016 20   XYZ
    dof rx
    limits (-90.0 20.0)
  end
  begin
     id 6 
     name rhipjoint
     direction -0.556459 -0.742938 0.372017   
     length 2.4012  
     axis 0 0 0  XYZ 
  end
  begin
     id 7 
     name rfemur
     direction -0.34202 -0.939693 0   
     length 7.5119   
     axis 0 0 -20   XYZ
    dof rx ry rz
    limits (-160.0 20.0)
           (-70.0 70.0)
           (-70.0 60.0)
  end
  begin
     id 8 
     name rtibia
     direction -0.34202 -0.939693 0   
     length 7.50155   
     axis 0 0 -20   XYZ
    dof rx
    limits (-10.0 170.0)
 end
 begin
     id 9 
     name rfoot
     direction -0.118427 -0.325376 0.938139   
     length 2.32487  
     axis -90 -7.62852e-016 -20   XYZ
    dof rx rz
    limits (-45.0 90.0)
           (-20.0 70.0)
  end
  begin
     id 10 
     name rtoes
     direction -1.53525e-011 -4.21868e-011 1   
     length 1.15233   
     axis -90 -7.62852e-016 -20   XYZ
    dof rx
    limits (-90.0 20.0)
  end
  begin
     id 11 
     name lowerback
     direction 0.0287568 0.999577 -0.00434502   
     length 2.15243   
     axis 0 0 0   XYZ
    dof rx ry rz
    limits (-20.0 45.0)
           (-30.0 30.0)
           (-30.0 30.0)
  end
  begin
     id 12 
     name upperback
     direction 0.0294009 0.99956 0.00404628   
     length 2.15427   
     axis 0 0 0   XYZ
    dof rx ry rz
    limits (-20.0 45.0)
           (-30.0 30.0)
           (-30.0 30.0)
  end
  begin
     id 13 
     name thorax
     direction 0.0151014 0.999868 0.0059419   
     length 2.14898   
     axis 0 0 0   XYZ
    dof rx ry rz
    limits (-20.0 45.0)
           (-30.0 30.0)
           (-30.0 30.0)
  end
  begin
     id 14 
     name lowerneck
     direction -0.0249197 0.989906 0.139515   
     length 1.6861   
     axis 0 0 0   XYZ
    dof rx ry rz
    limits (-20.0 45.0)
           (-30.0 30.0)
           (-30.0 30.0)
  end
  begin
     id 15 
     name upperneck
     direction 0.0438463 0.988795 -0.142693   
     length 1.71276   
     axis 0 0 0   XYZ
    dof rx ry rz
    limits (-20.0 45.0)
           (-30.0 30.0)
           (-30.0 30.0)
  end
  begin
     id 16
     name head
     direction 0.0148499 0.997845 -0.0639186  
     length 1.7209  
     axis 0 0 0   XYZ
    dof rx ry rz
    limits (-20.0 45.0)
           (-30.0 30.0)
           (-30.0 30.0)
  end
  begin
     id 17 
     name lclavicle
     direction 0.940298 0.323464 -0.105876  
     length 3.9048  
     axis 0 0 0   XYZ
    dof ry rz
    limits (-20.0 10.0)
           (0.0 20.0)
  end
  begin
     id 18 
     name lhumerus
     direction 1 -4.48954e-011 -4.9675e-028   
     length 4.6851   
     axis 180 -30 -90   XYZ
    dof rx ry rz
    limits (-60.0 90.0)
           (-90.0 90.0)
           (-90.0 90.0)
  end
  begin
     id 19
     name lradius
     direction 1 -4.48992e-011 -1.03359e-026   
     length 3.39626   
     axis 180 -30 -90   XYZ
    dof rx
    limits (-10.0 170.0)
  end
  begin
     id 20
     name lwrist
     direction 1 -4.48906e-011 -1.67336e-026   
     length 1.69813   
     axis 9.90442e-015 90 90   XYZ
    dof ry
    limits (-180.0 0.0)
 end
  begin
     id 21 
     name lhand
     direction 1 -4.49006e-011 -3.34673e-026   
     length 0.486078   
     axis 2.1355e-014 90 90   XYZ
    dof rx rz
    limits (-90.0 90.0)
           (-45.0 45.0)
  end
  begin
     id 22 
     name lfingers
     direction 1 -4.48992e-011 -6.69345e-026   
     length 0.391889   
     axis 4.27099e-014 90 90   XYZ
    dof rx
    limits (0.0 90.0)
  end
  begin
     id 23
     name lthumb
     direction 0.707107 -6.34926e-011 0.707107   
     length 0.562676   
     axis -90 45 2.85299e-015   XYZ
    dof rx rz
    limits (-45.0 45.0)
           (-45.0 45.0)
  end
  begin
     id 24 
     name rclavicle
     direction -0.882459 0.414895 -0.221648   
     length 3.44646  
     axis 0 0 0   XYZ 
    dof ry rz
    limits (-10.0 20.0)
           (-20.0 0.0)
  end
  begin
     id 25 
     name rhumerus
     direction -1 -4.48962e-011 -2.37984e-027  
     length 5.55576   
     axis 180 30 90   XYZ
    dof rx ry rz
    limits (-90.0 60.0)
           (-90.0 90.0)
           (-90.0 90.0)
  end
  begin
     id 26 
     name rradius
     direction -1 -4.48982e-011 -6.86791e-027   
     length 3.32774   
     axis 180 30 90   XYZ
    dof rx
    limits (-10.0 170.0)
  end
  begin
     id 27 
     name rwrist
     direction -1 -4.48961e-011 -1.67336e-026   
     length 1.66387   
     axis 9.90442e-015 -90 -90   XYZ
    dof ry
    limits (-180.0 0.0)
  end
  begin
     id 28
     name rhand
     direction -1 -4.4897e-011 -3.34673e-026   
     length 0.507628   
     axis 2.1355e-014 -90 -90   XYZ
    dof rx rz
    limits (-90.0 90.0)
           (-45.0 45.0)
  end
  begin
     id 29
     name rfingers
     direction -1 -4.48854e-011 -6.69345e-026   
     length 0.409263   
     axis 4.27099e-014 -90 -90   XYZ
    dof rx
    limits (0.0 90.0)
  end
  begin
     id 30
     name rthumb
     direction -0.707107 -6.34913e-011 0.707107   
     length 0.587622   
     axis -90 -45 -2.85299e-015   XYZ
    dof rx rz
    limits (-45.0 45.0)
           (-45.0 45.0)
  end
:hierarchy
  begin
    root lhipjoint rhipjoint lowerback
    lhipjoint lfemur
    lfemur ltibia
    ltibia lfoot
    lfoot ltoes
    rhipjoint rfemur
    rfemur rtibia
    rtibia rfoot
    rfoot rtoes
    lowerback upperback
    upperback thorax
    thorax lowerneck lclavicle rclavicle
    lowerneck upperneck
    upperneck head
    lclavicle lhumerus
    lhumerus lradius
    lradius lwrist
    lwrist lhand lthumb
    lhand lfingers
    rclavicle rhumerus
    rhumerus rradius
    rradius rwrist
    rwrist rhand rthumb
    rhand rfingers
  end

#!OML:ASF E:\motion texture\Top Level 1\Subject 1\Session 1\male.ASF
:FULLY-SPECIFIED
:DEGREES
1
root 41.5982 17.8048 5.96313 159.558 -81.3934 -149.14
lowerback -4.53358 -1.23684 4.32817
upperback -0.959275 -2.00717 3.57701
thorax 1.5378 -1.02827 1.1377
lowerneck -16.8893 -4.21827 -8.34283
upperneck 12.0555 -4.90692 7.35523
head 6.83733 -2.12939 3.21113
rclavicle 4.77083e-015 -2.14687e-014
rhumerus -26.7759 -5.94344 -83.4352
rradius 27.2067
rwrist 10.4422
rhand -15.259 -30.0049
rfingers 7.12502
rthumb 10.915 -59.7012
lclavicle 4.77083e-015 -2.14687e-014
lhumerus -26.4794 18.0668 86.673
lradius 26.6971
lwrist -32.4581
lhand -12.3728 22.7018
lfingers 7.12502
lthumb 13.6977 52.231
rfemur -13.6202 4.31581 27.0566
rtibia 17.8454
rfoot -10.5012 -9.69861
rtoes 22.4045
lfemur -13.3631 -0.200426 -12.5387
ltibia 18.122
lfoot -9.95703 8.33814
ltoes -9.80979
2
root 41.5852 17.7995 5.95017 158.796 -81.3892 -148.36
lowerback -4.19627 -1.2031 4.35507
upperback -1.05675 -1.9412 3.70323
thorax 1.25296 -1.00237 1.26626
lowerneck -17.1257 -4.19928 -8.26113
upperneck 12.1102 -4.84758 7.14169
head 6.88195 -2.10983 3.13233
rclavicle 2.76311e-014 3.26007e-014
rhumerus -26.9718 -6.02334 -83.2024
rradius 27.2167
rwrist 10.3481
rhand -14.9982 -32.2701
rfingers 7.12502
rthumb 11.1665 -61.953
lclavicle 2.76311e-014 3.26007e-014
lhumerus -26.7399 18.1117 86.7175
lradius 26.7141
lwrist -32.4993
lhand -12.3422 22.6195
lfingers 7.12502
lthumb 13.7272 52.1467
rfemur -13.5877 4.30952 27.2366
rtibia 17.8786
rfoot -10.3313 -9.48957
rtoes 17.2195
lfemur -13.9268 0.108013 -12.3766
ltibia 19.2137
lfoot -11.115 8.19427
ltoes -3.45012
3
root 41.5734 17.7943 5.93863 158.385 -81.283 -147.923
lowerback -4.4204 -1.05536 4.62238
upperback -0.66331 -1.788 3.60827
thorax 1.77425 -0.911234 1.01732
lowerneck -17.9167 -4.299 -7.95439
upperneck 11.9674 -4.97937 7.08837
head 6.96971 -2.14709 3.04089
rclavicle 5.96354e-015 -2.38542e-015
rhumerus -26.3943 -6.57133 -83.2509
rradius 27.0892
rwrist 10.3523
rhand -15.3189 -29.8938
rfingers 7.12502
rthumb 10.8572 -59.5932
lclavicle 5.96354e-015 -2.38542e-015
lhumerus -26.0522 17.8554 86.802
lradius 26.58
lwrist -32.5389
lhand -12.2507 22.7793
lfingers 7.12502
lthumb 13.8154 52.3006
rfemur -13.5956 4.3627 27.4176
rtibia 17.9611
rfoot -10.5763 -9.36766
rtoes 16.3224
lfemur -14.5358 0.47078 -12.2319
ltibia 20.3952
lfoot -12.0153 8.09628
ltoes -0.182474
4
root 41.563 17.7891 5.92919 157.899 -81.2101 -147.444
lowerback -4.37024 -1.14962 4.79237
upperback -0.795721 -1.91829 3.71206
thorax 1.60591 -0.982029 1.02535
lowerneck -17.0609 -4.08488 -8.15523
upperneck 11.538 -4.69403 7.14949
head 6.67165 -2.03144 3.13366
rclavicle -3.76697e-014 1.90833e-014
rhumerus -26.8057 -6.1636 -83.1948
rradius 27.1388
rwrist 10.1095
rhand -15.126 -32.9056
rfingers 7.12502
rthumb 11.0433 -62.5951
lclavicle -3.76697e-014 1.90833e-014
lhumerus -26.6731 18.3283 86.5225
lradius 26.6397
lwrist -32.6191
lhand -12.317 22.7362
lfingers 7.12502
lthumb 13.7515 52.2617
rfemur -13.5818 4.361 27.5665
rtibia 18.0464
rfoot -10.6636 -9.27741
rtoes 16.3595
lfemur -15.1817 0.750284 -12.1198
ltibia 21.6616
lfoot -12.2431 8.03167
ltoes -0.573676
5
root 41.5513 17.784 5.91958 157.013 -81.1636 -146.561
lowerback -4.32486 -1.09536 5.12399
upperback -0.682525 -1.86257 3.65779
thorax 1.68601 -0.94933 0.787767
lowerneck -17.2686 -4.08372 -7.97206
upperneck 11.4082 -4.70782 7.11081
head 6.66023 -2.02911 3.08716
rclavicle -3.02153e-014 2.38542e-014
rhumerus -26.7271 -6.52468 -83.1868
rradius 27.025
rwrist 10.0948
rhand -14.944 -32.7801
rfingers 7.12502
rthumb 11.2188 -62.4601
lclavicle -3.02153e-014 2.38542e-014
lhumerus -26.6167 18.1902 86.3946
lradius 26.5894
lwrist -32.575
lhand -12.3325 22.6258
lfingers 7.12502
lthumb 13.7366 52.1524
rfemur -13.5515 4.37034 27.7769
rtibia 18.1213
rfoot -10.7615 -9.24906
rtoes 16.2346
lfemur -15.8869 1.04649 -11.9537
ltibia 23.0338
lfoot -12.5066 7.93606
ltoes -1.04959
6
root 41.5391 17.7793 5.90844 156.159 -81.2092 -145.719
lowerback -3.84126 -1.12305 5.12141
upperback -0.901495 -1.85747 3.8311
thorax 1.19537 -0.961304 0.982504
lowerneck -17.1469 -4.04931 -8.05782
upperneck 11.4119 -4.62748 6.97687
head 6.63317 -2.00743 3.06752
rclavicle -2.8625e-014 2.06736e-014
rhumerus -27.1962 -6.3863 -82.8759
rradius 27.0331
rwrist 9.9785
rhand -14.8422 -31.4495
rfingers 7.12502
rthumb 11.3169 -61.1242
lclavicle -2.8625e-014 2.06736e-014
lhumerus -27.1978 18.3916 86.3483
lradius 26.623
lwrist -32.6499
lhand -12.3626 22.4742
lfingers 7.12502
lthumb 13.7076 52.0028
rfemur -13.5027 4.32438 27.9265
rtibia 18.1626
rfoot -10.8658 -9.262
rtoes 16.4376
lfemur -16.6404 1.29399 -11.8435
ltibia 24.4868
lfoot -12.6911 7.82162
ltoes -1.65072
